<?xml version="1.0" encoding="UTF-8" standalone="no"?>
<!-- Created with Inkscape (http://www.inkscape.org/) -->

<svg
   xmlns:dc="http://purl.org/dc/elements/1.1/"
   xmlns:cc="http://creativecommons.org/ns#"
   xmlns:rdf="http://www.w3.org/1999/02/22-rdf-syntax-ns#"
   xmlns:svg="http://www.w3.org/2000/svg"
   xmlns="http://www.w3.org/2000/svg"
   xmlns:sodipodi="http://sodipodi.sourceforge.net/DTD/sodipodi-0.dtd"
   xmlns:inkscape="http://www.inkscape.org/namespaces/inkscape"
   id="svg2"
   version="1.1"
   inkscape:version="0.47 r22583"
   width="900"
   height="562.5"
   xml:space="preserve"
   sodipodi:docname="Untitled 1.pdf"><metadata
     id="metadata8"><rdf:RDF><cc:Work
         rdf:about=""><dc:format>image/svg+xml</dc:format><dc:type
           rdf:resource="http://purl.org/dc/dcmitype/StillImage" /><dc:title></dc:title></cc:Work></rdf:RDF></metadata><defs
     id="defs6"><inkscape:perspective
       sodipodi:type="inkscape:persp3d"
       inkscape:vp_x="0 : 0.5 : 1"
       inkscape:vp_y="0 : 1000 : 0"
       inkscape:vp_z="1 : 0.5 : 1"
       inkscape:persp3d-origin="0.5 : 0.33333333 : 1"
       id="perspective10" /><clipPath
       clipPathUnits="userSpaceOnUse"
       id="clipPath18"><path
         d="m 0,-0.1 720.1,0 0,450.1 L 0,450 0,-0.1 z"
         clip-rule="evenodd"
         id="path20" /></clipPath></defs><sodipodi:namedview
     pagecolor="#ffffff"
     bordercolor="#666666"
     borderopacity="1"
     objecttolerance="10"
     gridtolerance="10"
     guidetolerance="10"
     inkscape:pageopacity="0"
     inkscape:pageshadow="2"
     inkscape:window-width="1427"
     inkscape:window-height="999"
     id="namedview4"
     showgrid="false"
     inkscape:zoom="0.41955556"
     inkscape:cx="450"
     inkscape:cy="281.25"
     inkscape:window-x="0"
     inkscape:window-y="56"
     inkscape:window-maximized="0"
     inkscape:current-layer="g12" /><g
     id="g12"
     inkscape:groupmode="layer"
     inkscape:label="Untitled 1"
     transform="matrix(1.25,0,0,-1.25,0,562.5)"><g
       id="g24"><path
         d="M 144,414 36,234"
         style="fill:none;stroke:#000000;stroke-width:8.63150024;stroke-linecap:butt;stroke-linejoin:round;stroke-miterlimit:10;stroke-opacity:1;stroke-dasharray:none"
         id="path26" /></g><g
       id="g28"><path
         d="M 324,378 288,306"
         style="fill:none;stroke:#000000;stroke-width:8.63150024;stroke-linecap:butt;stroke-linejoin:round;stroke-miterlimit:10;stroke-opacity:1;stroke-dasharray:none"
         id="path30" /></g><g
       id="g32"><path
         d="M 36,234 216,198"
         style="fill:none;stroke:#000000;stroke-width:8.63150024;stroke-linecap:butt;stroke-linejoin:round;stroke-miterlimit:10;stroke-opacity:1;stroke-dasharray:none"
         id="path34" /></g><g
       id="g36"><path
         d="m 126,54 18,216"
         style="fill:none;stroke:#000000;stroke-width:8.63150024;stroke-linecap:butt;stroke-linejoin:round;stroke-miterlimit:10;stroke-opacity:1;stroke-dasharray:none"
         id="path38" /></g><g
       id="g40"><path
         d="m 324,378 108,18"
         style="fill:none;stroke:#000000;stroke-width:8.63150024;stroke-linecap:butt;stroke-linejoin:round;stroke-miterlimit:10;stroke-opacity:1;stroke-dasharray:none"
         id="path42" /></g><g
       id="g44"><path
         d="m 468,324 -36,72"
         style="fill:none;stroke:#000000;stroke-width:8.63150024;stroke-linecap:butt;stroke-linejoin:round;stroke-miterlimit:10;stroke-opacity:1;stroke-dasharray:none"
         id="path46" /></g><g
       id="g48"><path
         d="M 306,90 288,306"
         style="fill:none;stroke:#000000;stroke-width:8.63150024;stroke-linecap:butt;stroke-linejoin:round;stroke-miterlimit:10;stroke-opacity:1;stroke-dasharray:none"
         id="path50" /></g><g
       id="g52"><path
         d="M 342,36 306,90"
         style="fill:none;stroke:#000000;stroke-width:8.63150024;stroke-linecap:butt;stroke-linejoin:round;stroke-miterlimit:10;stroke-opacity:1;stroke-dasharray:none"
         id="path54" /></g><g
       id="g56"><path
         d="m 432,36 -90,0"
         style="fill:none;stroke:#000000;stroke-width:8.63150024;stroke-linecap:butt;stroke-linejoin:round;stroke-miterlimit:10;stroke-opacity:1;stroke-dasharray:none"
         id="path58" /></g><g
       id="g60"><path
         d="M 468,108 432,36"
         style="fill:none;stroke:#000000;stroke-width:8.63150024;stroke-linecap:butt;stroke-linejoin:round;stroke-miterlimit:10;stroke-opacity:1;stroke-dasharray:none"
         id="path62" /></g><g
       id="g64"><path
         d="m 468,324 0,-216"
         style="fill:none;stroke:#000000;stroke-width:8.63150024;stroke-linecap:butt;stroke-linejoin:round;stroke-miterlimit:10;stroke-opacity:1;stroke-dasharray:none"
         id="path66" /></g><g
       id="g68"><path
         d="M 612,234 612,72"
         style="fill:none;stroke:#000000;stroke-width:8.63150024;stroke-linecap:butt;stroke-linejoin:round;stroke-miterlimit:10;stroke-opacity:1;stroke-dasharray:none"
         id="path70" /></g><g
       id="g72"><path
         d="m 522,198 72,180"
         style="fill:none;stroke:#000000;stroke-width:8.63150024;stroke-linecap:butt;stroke-linejoin:round;stroke-miterlimit:10;stroke-opacity:1;stroke-dasharray:none"
         id="path74" /></g><g
       id="g76"><path
         d="m 522,198 162,0"
         style="fill:none;stroke:#000000;stroke-width:8.63150024;stroke-linecap:butt;stroke-linejoin:round;stroke-miterlimit:10;stroke-opacity:1;stroke-dasharray:none"
         id="path78" /></g><path
       d="m 612,252 c 10.2,0 18,-7.8 18,-18 0,-10.2 -7.8,-18 -18,-18 -10.2,0 -18,7.8 -18,18 0,10.2 7.8,18 18,18 z m -18,0 0,0 z m 36,-36 0,0 z"
       style="fill:#ff3333;fill-opacity:1;fill-rule:evenodd;stroke:none"
       id="path80" /><g
       id="g82"><path
         d="m 612,252 c 10.2,0 18,-7.8 18,-18 0,-10.2 -7.8,-18 -18,-18 -10.2,0 -18,7.8 -18,18 0,10.2 7.8,18 18,18 z"
         style="fill:none;stroke:#000000;stroke-width:4.30158997;stroke-linecap:butt;stroke-linejoin:round;stroke-miterlimit:10;stroke-opacity:1;stroke-dasharray:none"
         id="path84" /></g><g
       id="g86"><path
         d="m 594,252 0,0 z"
         style="fill:none;stroke:#000000;stroke-width:4.30158997;stroke-linecap:butt;stroke-linejoin:round;stroke-miterlimit:10;stroke-opacity:1;stroke-dasharray:none"
         id="path88" /></g><g
       id="g90"><path
         d="m 630,216 0,0 z"
         style="fill:none;stroke:#000000;stroke-width:4.30158997;stroke-linecap:butt;stroke-linejoin:round;stroke-miterlimit:10;stroke-opacity:1;stroke-dasharray:none"
         id="path92" /></g><path
       d="m 144,432 c 10.2,0 18,-7.8 18,-18 0,-10.2 -7.8,-18 -18,-18 -10.2,0 -18,7.8 -18,18 0,10.2 7.8,18 18,18 z m -18,0 0,0 z m 36,-36 0,0 z"
       style="fill:#ff3333;fill-opacity:1;fill-rule:evenodd;stroke:none"
       id="path94" /><g
       id="g96"><path
         d="m 144,432 c 10.2,0 18,-7.8 18,-18 0,-10.2 -7.8,-18 -18,-18 -10.2,0 -18,7.8 -18,18 0,10.2 7.8,18 18,18 z"
         style="fill:none;stroke:#000000;stroke-width:4.30158997;stroke-linecap:butt;stroke-linejoin:round;stroke-miterlimit:10;stroke-opacity:1;stroke-dasharray:none"
         id="path98" /></g><g
       id="g100"><path
         d="m 126,432 0,0 z"
         style="fill:none;stroke:#000000;stroke-width:4.30158997;stroke-linecap:butt;stroke-linejoin:round;stroke-miterlimit:10;stroke-opacity:1;stroke-dasharray:none"
         id="path102" /></g><g
       id="g104"><path
         d="m 162,396 0,0 z"
         style="fill:none;stroke:#000000;stroke-width:4.30158997;stroke-linecap:butt;stroke-linejoin:round;stroke-miterlimit:10;stroke-opacity:1;stroke-dasharray:none"
         id="path106" /></g><path
       d="m 36,252 c 10.2,0 18,-7.8 18,-18 0,-10.2 -7.8,-18 -18,-18 -10.2,0 -18,7.8 -18,18 0,10.2 7.8,18 18,18 z m -18,0 0,0 z m 36,-36 0,0 z"
       style="fill:#ff3333;fill-opacity:1;fill-rule:evenodd;stroke:none"
       id="path108" /><g
       id="g110"><path
         d="m 36,252 c 10.2,0 18,-7.8 18,-18 0,-10.2 -7.8,-18 -18,-18 -10.2,0 -18,7.8 -18,18 0,10.2 7.8,18 18,18 z"
         style="fill:none;stroke:#000000;stroke-width:4.30158997;stroke-linecap:butt;stroke-linejoin:round;stroke-miterlimit:10;stroke-opacity:1;stroke-dasharray:none"
         id="path112" /></g><g
       id="g114"><path
         d="m 18,252 0,0 z"
         style="fill:none;stroke:#000000;stroke-width:4.30158997;stroke-linecap:butt;stroke-linejoin:round;stroke-miterlimit:10;stroke-opacity:1;stroke-dasharray:none"
         id="path116" /></g><g
       id="g118"><path
         d="m 54,216 0,0 z"
         style="fill:none;stroke:#000000;stroke-width:4.30158997;stroke-linecap:butt;stroke-linejoin:round;stroke-miterlimit:10;stroke-opacity:1;stroke-dasharray:none"
         id="path120" /></g><path
       d="m 216,216 c 10.2,0 18,-7.8 18,-18 0,-10.2 -7.8,-18 -18,-18 -10.2,0 -18,7.8 -18,18 0,10.2 7.8,18 18,18 z m -18,0 0,0 z m 36,-36 0,0 z"
       style="fill:#ff3333;fill-opacity:1;fill-rule:evenodd;stroke:none"
       id="path122" /><g
       id="g124"><path
         d="m 216,216 c 10.2,0 18,-7.8 18,-18 0,-10.2 -7.8,-18 -18,-18 -10.2,0 -18,7.8 -18,18 0,10.2 7.8,18 18,18 z"
         style="fill:none;stroke:#000000;stroke-width:4.30158997;stroke-linecap:butt;stroke-linejoin:round;stroke-miterlimit:10;stroke-opacity:1;stroke-dasharray:none"
         id="path126" /></g><g
       id="g128"><path
         d="m 198,216 0,0 z"
         style="fill:none;stroke:#000000;stroke-width:4.30158997;stroke-linecap:butt;stroke-linejoin:round;stroke-miterlimit:10;stroke-opacity:1;stroke-dasharray:none"
         id="path130" /></g><g
       id="g132"><path
         d="m 234,180 0,0 z"
         style="fill:none;stroke:#000000;stroke-width:4.30158997;stroke-linecap:butt;stroke-linejoin:round;stroke-miterlimit:10;stroke-opacity:1;stroke-dasharray:none"
         id="path134" /></g><path
       d="m 126,72 c 10.2,0 18,-7.8 18,-18 0,-10.2 -7.8,-18 -18,-18 -10.2,0 -18,7.8 -18,18 0,10.2 7.8,18 18,18 z m -18,0 0,0 z m 36,-36 0,0 z"
       style="fill:#ff3333;fill-opacity:1;fill-rule:evenodd;stroke:none"
       id="path136" /><g
       id="g138"><path
         d="m 126,72 c 10.2,0 18,-7.8 18,-18 0,-10.2 -7.8,-18 -18,-18 -10.2,0 -18,7.8 -18,18 0,10.2 7.8,18 18,18 z"
         style="fill:none;stroke:#000000;stroke-width:4.30158997;stroke-linecap:butt;stroke-linejoin:round;stroke-miterlimit:10;stroke-opacity:1;stroke-dasharray:none"
         id="path140" /></g><g
       id="g142"><path
         d="m 108,72 0,0 z"
         style="fill:none;stroke:#000000;stroke-width:4.30158997;stroke-linecap:butt;stroke-linejoin:round;stroke-miterlimit:10;stroke-opacity:1;stroke-dasharray:none"
         id="path144" /></g><g
       id="g146"><path
         d="m 144,36 0,0 z"
         style="fill:none;stroke:#000000;stroke-width:4.30158997;stroke-linecap:butt;stroke-linejoin:round;stroke-miterlimit:10;stroke-opacity:1;stroke-dasharray:none"
         id="path148" /></g><path
       d="m 306,108 c 10.2,0 18,-7.8 18,-18 0,-10.2 -7.8,-18 -18,-18 -10.2,0 -18,7.8 -18,18 0,10.2 7.8,18 18,18 z m -18,0 0,0 z m 36,-36 0,0 z"
       style="fill:#ff3333;fill-opacity:1;fill-rule:evenodd;stroke:none"
       id="path150" /><g
       id="g152"><path
         d="m 306,108 c 10.2,0 18,-7.8 18,-18 0,-10.2 -7.8,-18 -18,-18 -10.2,0 -18,7.8 -18,18 0,10.2 7.8,18 18,18 z"
         style="fill:none;stroke:#000000;stroke-width:4.30158997;stroke-linecap:butt;stroke-linejoin:round;stroke-miterlimit:10;stroke-opacity:1;stroke-dasharray:none"
         id="path154" /></g><g
       id="g156"><path
         d="m 288,108 0,0 z"
         style="fill:none;stroke:#000000;stroke-width:4.30158997;stroke-linecap:butt;stroke-linejoin:round;stroke-miterlimit:10;stroke-opacity:1;stroke-dasharray:none"
         id="path158" /></g><g
       id="g160"><path
         d="m 324,72 0,0 z"
         style="fill:none;stroke:#000000;stroke-width:4.30158997;stroke-linecap:butt;stroke-linejoin:round;stroke-miterlimit:10;stroke-opacity:1;stroke-dasharray:none"
         id="path162" /></g><path
       d="m 342,54 c 10.2,0 18,-7.8 18,-18 0,-10.2 -7.8,-18 -18,-18 -10.2,0 -18,7.8 -18,18 0,10.2 7.8,18 18,18 z m -18,0 0,0 z m 36,-36 0,0 z"
       style="fill:#ff3333;fill-opacity:1;fill-rule:evenodd;stroke:none"
       id="path164" /><g
       id="g166"><path
         d="m 342,54 c 10.2,0 18,-7.8 18,-18 0,-10.2 -7.8,-18 -18,-18 -10.2,0 -18,7.8 -18,18 0,10.2 7.8,18 18,18 z"
         style="fill:none;stroke:#000000;stroke-width:4.30158997;stroke-linecap:butt;stroke-linejoin:round;stroke-miterlimit:10;stroke-opacity:1;stroke-dasharray:none"
         id="path168" /></g><g
       id="g170"><path
         d="m 324,54 0,0 z"
         style="fill:none;stroke:#000000;stroke-width:4.30158997;stroke-linecap:butt;stroke-linejoin:round;stroke-miterlimit:10;stroke-opacity:1;stroke-dasharray:none"
         id="path172" /></g><g
       id="g174"><path
         d="m 360,18 0,0 z"
         style="fill:none;stroke:#000000;stroke-width:4.30158997;stroke-linecap:butt;stroke-linejoin:round;stroke-miterlimit:10;stroke-opacity:1;stroke-dasharray:none"
         id="path176" /></g><path
       d="m 144,288 c 10.2,0 18,-7.8 18,-18 0,-10.2 -7.8,-18 -18,-18 -10.2,0 -18,7.8 -18,18 0,10.2 7.8,18 18,18 z m -18,0 0,0 z m 36,-36 0,0 z"
       style="fill:#ff3333;fill-opacity:1;fill-rule:evenodd;stroke:none"
       id="path178" /><g
       id="g180"><path
         d="m 144,288 c 10.2,0 18,-7.8 18,-18 0,-10.2 -7.8,-18 -18,-18 -10.2,0 -18,7.8 -18,18 0,10.2 7.8,18 18,18 z"
         style="fill:none;stroke:#000000;stroke-width:4.30158997;stroke-linecap:butt;stroke-linejoin:round;stroke-miterlimit:10;stroke-opacity:1;stroke-dasharray:none"
         id="path182" /></g><g
       id="g184"><path
         d="m 126,288 0,0 z"
         style="fill:none;stroke:#000000;stroke-width:4.30158997;stroke-linecap:butt;stroke-linejoin:round;stroke-miterlimit:10;stroke-opacity:1;stroke-dasharray:none"
         id="path186" /></g><g
       id="g188"><path
         d="m 162,252 0,0 z"
         style="fill:none;stroke:#000000;stroke-width:4.30158997;stroke-linecap:butt;stroke-linejoin:round;stroke-miterlimit:10;stroke-opacity:1;stroke-dasharray:none"
         id="path190" /></g><path
       d="m 324,396 c 10.2,0 18,-7.8 18,-18 0,-10.2 -7.8,-18 -18,-18 -10.2,0 -18,7.8 -18,18 0,10.2 7.8,18 18,18 z m -18,0 0,0 z m 36,-36 0,0 z"
       style="fill:#ff3333;fill-opacity:1;fill-rule:evenodd;stroke:none"
       id="path192" /><g
       id="g194"><path
         d="m 324,396 c 10.2,0 18,-7.8 18,-18 0,-10.2 -7.8,-18 -18,-18 -10.2,0 -18,7.8 -18,18 0,10.2 7.8,18 18,18 z"
         style="fill:none;stroke:#000000;stroke-width:4.30158997;stroke-linecap:butt;stroke-linejoin:round;stroke-miterlimit:10;stroke-opacity:1;stroke-dasharray:none"
         id="path196" /></g><g
       id="g198"><path
         d="m 306,396 0,0 z"
         style="fill:none;stroke:#000000;stroke-width:4.30158997;stroke-linecap:butt;stroke-linejoin:round;stroke-miterlimit:10;stroke-opacity:1;stroke-dasharray:none"
         id="path200" /></g><g
       id="g202"><path
         d="m 342,360 0,0 z"
         style="fill:none;stroke:#000000;stroke-width:4.30158997;stroke-linecap:butt;stroke-linejoin:round;stroke-miterlimit:10;stroke-opacity:1;stroke-dasharray:none"
         id="path204" /></g><path
       d="m 432,54 c 10.2,0 18,-7.8 18,-18 0,-10.2 -7.8,-18 -18,-18 -10.2,0 -18,7.8 -18,18 0,10.2 7.8,18 18,18 z m -18,0 0,0 z m 36,-36 0,0 z"
       style="fill:#ff3333;fill-opacity:1;fill-rule:evenodd;stroke:none"
       id="path206" /><g
       id="g208"><path
         d="m 432,54 c 10.2,0 18,-7.8 18,-18 0,-10.2 -7.8,-18 -18,-18 -10.2,0 -18,7.8 -18,18 0,10.2 7.8,18 18,18 z"
         style="fill:none;stroke:#000000;stroke-width:4.30158997;stroke-linecap:butt;stroke-linejoin:round;stroke-miterlimit:10;stroke-opacity:1;stroke-dasharray:none"
         id="path210" /></g><g
       id="g212"><path
         d="m 414,54 0,0 z"
         style="fill:none;stroke:#000000;stroke-width:4.30158997;stroke-linecap:butt;stroke-linejoin:round;stroke-miterlimit:10;stroke-opacity:1;stroke-dasharray:none"
         id="path214" /></g><g
       id="g216"><path
         d="m 450,18 0,0 z"
         style="fill:none;stroke:#000000;stroke-width:4.30158997;stroke-linecap:butt;stroke-linejoin:round;stroke-miterlimit:10;stroke-opacity:1;stroke-dasharray:none"
         id="path218" /></g><path
       d="m 468,126 c 10.2,0 18,-7.8 18,-18 0,-10.2 -7.8,-18 -18,-18 -10.2,0 -18,7.8 -18,18 0,10.2 7.8,18 18,18 z m -18,0 0,0 z m 36,-36 0,0 z"
       style="fill:#ff3333;fill-opacity:1;fill-rule:evenodd;stroke:none"
       id="path220" /><g
       id="g222"><path
         d="m 468,126 c 10.2,0 18,-7.8 18,-18 0,-10.2 -7.8,-18 -18,-18 -10.2,0 -18,7.8 -18,18 0,10.2 7.8,18 18,18 z"
         style="fill:none;stroke:#000000;stroke-width:4.30158997;stroke-linecap:butt;stroke-linejoin:round;stroke-miterlimit:10;stroke-opacity:1;stroke-dasharray:none"
         id="path224" /></g><g
       id="g226"><path
         d="m 450,126 0,0 z"
         style="fill:none;stroke:#000000;stroke-width:4.30158997;stroke-linecap:butt;stroke-linejoin:round;stroke-miterlimit:10;stroke-opacity:1;stroke-dasharray:none"
         id="path228" /></g><g
       id="g230"><path
         d="m 486,90 0,0 z"
         style="fill:none;stroke:#000000;stroke-width:4.30158997;stroke-linecap:butt;stroke-linejoin:round;stroke-miterlimit:10;stroke-opacity:1;stroke-dasharray:none"
         id="path232" /></g><path
       d="m 468,342 c 10.2,0 18,-7.8 18,-18 0,-10.2 -7.8,-18 -18,-18 -10.2,0 -18,7.8 -18,18 0,10.2 7.8,18 18,18 z m -18,0 0,0 z m 36,-36 0,0 z"
       style="fill:#ff3333;fill-opacity:1;fill-rule:evenodd;stroke:none"
       id="path234" /><g
       id="g236"><path
         d="m 468,342 c 10.2,0 18,-7.8 18,-18 0,-10.2 -7.8,-18 -18,-18 -10.2,0 -18,7.8 -18,18 0,10.2 7.8,18 18,18 z"
         style="fill:none;stroke:#000000;stroke-width:4.30158997;stroke-linecap:butt;stroke-linejoin:round;stroke-miterlimit:10;stroke-opacity:1;stroke-dasharray:none"
         id="path238" /></g><g
       id="g240"><path
         d="m 450,342 0,0 z"
         style="fill:none;stroke:#000000;stroke-width:4.30158997;stroke-linecap:butt;stroke-linejoin:round;stroke-miterlimit:10;stroke-opacity:1;stroke-dasharray:none"
         id="path242" /></g><g
       id="g244"><path
         d="m 486,306 0,0 z"
         style="fill:none;stroke:#000000;stroke-width:4.30158997;stroke-linecap:butt;stroke-linejoin:round;stroke-miterlimit:10;stroke-opacity:1;stroke-dasharray:none"
         id="path246" /></g><path
       d="m 432,414 c 10.2,0 18,-7.8 18,-18 0,-10.2 -7.8,-18 -18,-18 -10.2,0 -18,7.8 -18,18 0,10.2 7.8,18 18,18 z m -18,0 0,0 z m 36,-36 0,0 z"
       style="fill:#ff3333;fill-opacity:1;fill-rule:evenodd;stroke:none"
       id="path248" /><g
       id="g250"><path
         d="m 432,414 c 10.2,0 18,-7.8 18,-18 0,-10.2 -7.8,-18 -18,-18 -10.2,0 -18,7.8 -18,18 0,10.2 7.8,18 18,18 z"
         style="fill:none;stroke:#000000;stroke-width:4.30158997;stroke-linecap:butt;stroke-linejoin:round;stroke-miterlimit:10;stroke-opacity:1;stroke-dasharray:none"
         id="path252" /></g><g
       id="g254"><path
         d="m 414,414 0,0 z"
         style="fill:none;stroke:#000000;stroke-width:4.30158997;stroke-linecap:butt;stroke-linejoin:round;stroke-miterlimit:10;stroke-opacity:1;stroke-dasharray:none"
         id="path256" /></g><g
       id="g258"><path
         d="m 450,378 0,0 z"
         style="fill:none;stroke:#000000;stroke-width:4.30158997;stroke-linecap:butt;stroke-linejoin:round;stroke-miterlimit:10;stroke-opacity:1;stroke-dasharray:none"
         id="path260" /></g><path
       d="m 288,324 c 10.2,0 18,-7.8 18,-18 0,-10.2 -7.8,-18 -18,-18 -10.2,0 -18,7.8 -18,18 0,10.2 7.8,18 18,18 z m -18,0 0,0 z m 36,-36 0,0 z"
       style="fill:#ff3333;fill-opacity:1;fill-rule:evenodd;stroke:none"
       id="path262" /><g
       id="g264"><path
         d="m 288,324 c 10.2,0 18,-7.8 18,-18 0,-10.2 -7.8,-18 -18,-18 -10.2,0 -18,7.8 -18,18 0,10.2 7.8,18 18,18 z"
         style="fill:none;stroke:#000000;stroke-width:4.30158997;stroke-linecap:butt;stroke-linejoin:round;stroke-miterlimit:10;stroke-opacity:1;stroke-dasharray:none"
         id="path266" /></g><g
       id="g268"><path
         d="m 270,324 0,0 z"
         style="fill:none;stroke:#000000;stroke-width:4.30158997;stroke-linecap:butt;stroke-linejoin:round;stroke-miterlimit:10;stroke-opacity:1;stroke-dasharray:none"
         id="path270" /></g><g
       id="g272"><path
         d="m 306,288 0,0 z"
         style="fill:none;stroke:#000000;stroke-width:4.30158997;stroke-linecap:butt;stroke-linejoin:round;stroke-miterlimit:10;stroke-opacity:1;stroke-dasharray:none"
         id="path274" /></g><path
       d="m 594,396 c 10.2,0 18,-7.8 18,-18 0,-10.2 -7.8,-18 -18,-18 -10.2,0 -18,7.8 -18,18 0,10.2 7.8,18 18,18 z m -18,0 0,0 z m 36,-36 0,0 z"
       style="fill:#ff3333;fill-opacity:1;fill-rule:evenodd;stroke:none"
       id="path276" /><g
       id="g278"><path
         d="m 594,396 c 10.2,0 18,-7.8 18,-18 0,-10.2 -7.8,-18 -18,-18 -10.2,0 -18,7.8 -18,18 0,10.2 7.8,18 18,18 z"
         style="fill:none;stroke:#000000;stroke-width:4.30158997;stroke-linecap:butt;stroke-linejoin:round;stroke-miterlimit:10;stroke-opacity:1;stroke-dasharray:none"
         id="path280" /></g><g
       id="g282"><path
         d="m 576,396 0,0 z"
         style="fill:none;stroke:#000000;stroke-width:4.30158997;stroke-linecap:butt;stroke-linejoin:round;stroke-miterlimit:10;stroke-opacity:1;stroke-dasharray:none"
         id="path284" /></g><g
       id="g286"><path
         d="m 612,360 0,0 z"
         style="fill:none;stroke:#000000;stroke-width:4.30158997;stroke-linecap:butt;stroke-linejoin:round;stroke-miterlimit:10;stroke-opacity:1;stroke-dasharray:none"
         id="path288" /></g><path
       d="m 522,216 c 10.2,0 18,-7.8 18,-18 0,-10.2 -7.8,-18 -18,-18 -10.2,0 -18,7.8 -18,18 0,10.2 7.8,18 18,18 z m -18,0 0,0 z m 36,-36 0,0 z"
       style="fill:#ff3333;fill-opacity:1;fill-rule:evenodd;stroke:none"
       id="path290" /><g
       id="g292"><path
         d="m 522,216 c 10.2,0 18,-7.8 18,-18 0,-10.2 -7.8,-18 -18,-18 -10.2,0 -18,7.8 -18,18 0,10.2 7.8,18 18,18 z"
         style="fill:none;stroke:#000000;stroke-width:4.30158997;stroke-linecap:butt;stroke-linejoin:round;stroke-miterlimit:10;stroke-opacity:1;stroke-dasharray:none"
         id="path294" /></g><g
       id="g296"><path
         d="m 504,216 0,0 z"
         style="fill:none;stroke:#000000;stroke-width:4.30158997;stroke-linecap:butt;stroke-linejoin:round;stroke-miterlimit:10;stroke-opacity:1;stroke-dasharray:none"
         id="path298" /></g><g
       id="g300"><path
         d="m 540,180 0,0 z"
         style="fill:none;stroke:#000000;stroke-width:4.30158997;stroke-linecap:butt;stroke-linejoin:round;stroke-miterlimit:10;stroke-opacity:1;stroke-dasharray:none"
         id="path302" /></g><path
       d="m 684,216 c 10.2,0 18,-7.8 18,-18 0,-10.2 -7.8,-18 -18,-18 -10.2,0 -18,7.8 -18,18 0,10.2 7.8,18 18,18 z m -18,0 0,0 z m 36,-36 0,0 z"
       style="fill:#ff3333;fill-opacity:1;fill-rule:evenodd;stroke:none"
       id="path304" /><g
       id="g306"><path
         d="m 684,216 c 10.2,0 18,-7.8 18,-18 0,-10.2 -7.8,-18 -18,-18 -10.2,0 -18,7.8 -18,18 0,10.2 7.8,18 18,18 z"
         style="fill:none;stroke:#000000;stroke-width:4.30158997;stroke-linecap:butt;stroke-linejoin:round;stroke-miterlimit:10;stroke-opacity:1;stroke-dasharray:none"
         id="path308" /></g><g
       id="g310"><path
         d="m 666,216 0,0 z"
         style="fill:none;stroke:#000000;stroke-width:4.30158997;stroke-linecap:butt;stroke-linejoin:round;stroke-miterlimit:10;stroke-opacity:1;stroke-dasharray:none"
         id="path312" /></g><g
       id="g314"><path
         d="m 702,180 0,0 z"
         style="fill:none;stroke:#000000;stroke-width:4.30158997;stroke-linecap:butt;stroke-linejoin:round;stroke-miterlimit:10;stroke-opacity:1;stroke-dasharray:none"
         id="path316" /></g><path
       d="m 612,90 c 10.2,0 18,-7.8 18,-18 0,-10.2 -7.8,-18 -18,-18 -10.2,0 -18,7.8 -18,18 0,10.2 7.8,18 18,18 z m -18,0 0,0 z m 36,-36 0,0 z"
       style="fill:#ff3333;fill-opacity:1;fill-rule:evenodd;stroke:none"
       id="path318" /><g
       id="g320"><path
         d="m 612,90 c 10.2,0 18,-7.8 18,-18 0,-10.2 -7.8,-18 -18,-18 -10.2,0 -18,7.8 -18,18 0,10.2 7.8,18 18,18 z"
         style="fill:none;stroke:#000000;stroke-width:4.30158997;stroke-linecap:butt;stroke-linejoin:round;stroke-miterlimit:10;stroke-opacity:1;stroke-dasharray:none"
         id="path322" /></g><g
       id="g324"><path
         d="m 594,90 0,0 z"
         style="fill:none;stroke:#000000;stroke-width:4.30158997;stroke-linecap:butt;stroke-linejoin:round;stroke-miterlimit:10;stroke-opacity:1;stroke-dasharray:none"
         id="path326" /></g><g
       id="g328"><path
         d="m 630,54 0,0 z"
         style="fill:none;stroke:#000000;stroke-width:4.30158997;stroke-linecap:butt;stroke-linejoin:round;stroke-miterlimit:10;stroke-opacity:1;stroke-dasharray:none"
         id="path330" /></g></g></svg>